<svg width="238" height="59" viewBox="0 0 238 59" fill="none" xmlns="http://www.w3.org/2000/svg">
<rect x="1" y="1" width="236" height="57" rx="7" fill="#819B57"/>
<rect x="1" y="1" width="236" height="57" rx="7" stroke="#819B57" stroke-width="2"/>
<path d="M42.494 26.154C42.494 27.018 42.188 27.714 41.576 28.242C40.964 28.77 40.184 29.1 39.236 29.232V29.286C40.412 29.406 41.312 29.736 41.936 30.276C42.572 30.804 42.89 31.494 42.89 32.346C42.89 33.09 42.686 33.756 42.278 34.344C41.87 34.92 41.264 35.37 40.46 35.694C39.656 36.018 38.66 36.18 37.472 36.18C36.5 36.18 35.636 36.12 34.88 36C34.136 35.88 33.488 35.706 32.936 35.478V33.192C33.308 33.372 33.728 33.528 34.196 33.66C34.664 33.78 35.138 33.876 35.618 33.948C36.098 34.008 36.542 34.038 36.95 34.038C38.09 34.038 38.912 33.876 39.416 33.552C39.932 33.216 40.19 32.748 40.19 32.148C40.19 31.536 39.818 31.092 39.074 30.816C38.33 30.528 37.328 30.384 36.068 30.384H34.862V28.26H35.942C36.962 28.26 37.754 28.194 38.318 28.062C38.882 27.93 39.278 27.738 39.506 27.486C39.734 27.234 39.848 26.934 39.848 26.586C39.848 26.142 39.65 25.794 39.254 25.542C38.87 25.278 38.288 25.146 37.508 25.146C36.848 25.146 36.224 25.242 35.636 25.434C35.06 25.626 34.52 25.878 34.016 26.19L32.828 24.372C33.272 24.084 33.74 23.838 34.232 23.634C34.736 23.418 35.288 23.256 35.888 23.148C36.488 23.028 37.154 22.968 37.886 22.968C38.858 22.968 39.686 23.106 40.37 23.382C41.054 23.658 41.576 24.036 41.936 24.516C42.308 24.984 42.494 25.53 42.494 26.154ZM49.1079 25.974C50.4279 25.974 51.4359 26.262 52.1319 26.838C52.8399 27.402 53.1939 28.272 53.1939 29.448V36H51.3219L50.7999 34.668H50.7279C50.4519 35.016 50.1639 35.304 49.8639 35.532C49.5759 35.76 49.2399 35.922 48.8559 36.018C48.4839 36.126 48.0219 36.18 47.4699 36.18C46.8939 36.18 46.3719 36.072 45.9039 35.856C45.4479 35.628 45.0879 35.286 44.8239 34.83C44.5599 34.362 44.4279 33.774 44.4279 33.066C44.4279 32.022 44.7939 31.254 45.5259 30.762C46.2579 30.258 47.3559 29.982 48.8199 29.934L50.5299 29.88V29.448C50.5299 28.932 50.3919 28.554 50.1159 28.314C49.8519 28.074 49.4799 27.954 48.9999 27.954C48.5199 27.954 48.0519 28.026 47.5959 28.17C47.1399 28.302 46.6839 28.47 46.2279 28.674L45.3459 26.856C45.8739 26.58 46.4559 26.364 47.0919 26.208C47.7399 26.052 48.4119 25.974 49.1079 25.974ZM49.4859 31.482C48.6219 31.506 48.0219 31.662 47.6859 31.95C47.3499 32.238 47.1819 32.616 47.1819 33.084C47.1819 33.492 47.3019 33.786 47.5419 33.966C47.7819 34.134 48.0939 34.218 48.4779 34.218C49.0539 34.218 49.5399 34.05 49.9359 33.714C50.3319 33.366 50.5299 32.88 50.5299 32.256V31.446L49.4859 31.482ZM68.3232 26.172V36H65.8212V31.176C65.8212 30.696 65.8272 30.228 65.8392 29.772C65.8632 29.316 65.8932 28.896 65.9292 28.512H65.8752L63.1572 36H61.1412L58.3872 28.494H58.3152C58.3632 28.89 58.3932 29.316 58.4052 29.772C58.4292 30.216 58.4412 30.708 58.4412 31.248V36H55.9392V26.172H59.7372L62.1852 32.832L64.6692 26.172H68.3232ZM80.0547 31.068C80.0547 31.884 79.9407 32.61 79.7127 33.246C79.4967 33.882 79.1787 34.422 78.7587 34.866C78.3507 35.298 77.8527 35.628 77.2647 35.856C76.6767 36.072 76.0107 36.18 75.2667 36.18C74.5827 36.18 73.9467 36.072 73.3587 35.856C72.7827 35.628 72.2847 35.298 71.8647 34.866C71.4447 34.422 71.1147 33.882 70.8747 33.246C70.6467 32.61 70.5327 31.884 70.5327 31.068C70.5327 29.976 70.7247 29.058 71.1087 28.314C71.4927 27.558 72.0447 26.982 72.7647 26.586C73.4847 26.19 74.3367 25.992 75.3207 25.992C76.2447 25.992 77.0607 26.19 77.7687 26.586C78.4767 26.982 79.0347 27.558 79.4427 28.314C79.8507 29.058 80.0547 29.976 80.0547 31.068ZM73.2687 31.068C73.2687 31.716 73.3347 32.262 73.4667 32.706C73.6107 33.138 73.8327 33.468 74.1327 33.696C74.4327 33.912 74.8227 34.02 75.3027 34.02C75.7827 34.02 76.1667 33.912 76.4547 33.696C76.7547 33.468 76.9707 33.138 77.1027 32.706C77.2467 32.262 77.3187 31.716 77.3187 31.068C77.3187 30.42 77.2467 29.88 77.1027 29.448C76.9707 29.016 76.7547 28.692 76.4547 28.476C76.1547 28.26 75.7647 28.152 75.2847 28.152C74.5767 28.152 74.0607 28.398 73.7367 28.89C73.4247 29.37 73.2687 30.096 73.2687 31.068ZM90.9832 28.746C90.9832 29.274 90.8152 29.724 90.4792 30.096C90.1552 30.468 89.6692 30.708 89.0212 30.816V30.888C89.7052 30.972 90.2512 31.206 90.6592 31.59C91.0792 31.974 91.2892 32.466 91.2892 33.066C91.2892 33.486 91.2052 33.876 91.0372 34.236C90.8812 34.596 90.6292 34.908 90.2812 35.172C89.9332 35.436 89.4832 35.64 88.9312 35.784C88.3912 35.928 87.7312 36 86.9512 36H82.2712V26.172H86.9512C87.7192 26.172 88.4032 26.256 89.0032 26.424C89.6152 26.58 90.0952 26.844 90.4432 27.216C90.8032 27.588 90.9832 28.098 90.9832 28.746ZM88.5172 32.922C88.5172 32.538 88.3672 32.262 88.0672 32.094C87.7672 31.914 87.3172 31.824 86.7172 31.824H84.9532V34.146H86.7712C87.2752 34.146 87.6892 34.056 88.0132 33.876C88.3492 33.684 88.5172 33.366 88.5172 32.922ZM88.2652 28.962C88.2652 28.65 88.1452 28.422 87.9052 28.278C87.6652 28.134 87.3112 28.062 86.8432 28.062H84.9532V30.006H86.5372C87.1012 30.006 87.5272 29.928 87.8152 29.772C88.1152 29.604 88.2652 29.334 88.2652 28.962ZM96.1835 30.06C96.1835 30.264 96.1715 30.516 96.1475 30.816C96.1355 31.116 96.1175 31.422 96.0935 31.734C96.0815 32.046 96.0635 32.322 96.0395 32.562C96.0155 32.802 95.9975 32.97 95.9855 33.066L100.522 26.172H103.744V36H101.152V32.076C101.152 31.752 101.164 31.398 101.188 31.014C101.212 30.618 101.236 30.252 101.26 29.916C101.296 29.568 101.32 29.304 101.332 29.124L96.8135 36H93.5915V26.172H96.1835V30.06ZM114.683 28.188H111.461V36H108.779V28.188H105.557V26.172H114.683V28.188ZM119.088 30.06C119.088 30.264 119.076 30.516 119.052 30.816C119.04 31.116 119.022 31.422 118.998 31.734C118.986 32.046 118.968 32.322 118.944 32.562C118.92 32.802 118.902 32.97 118.89 33.066L123.426 26.172H126.648V36H124.056V32.076C124.056 31.752 124.068 31.398 124.092 31.014C124.116 30.618 124.14 30.252 124.164 29.916C124.2 29.568 124.224 29.304 124.236 29.124L119.718 36H116.496V26.172H119.088V30.06ZM142.578 26.172V34.038H144.018V39.528H141.606V36H135V39.528H132.588V34.038H133.416C133.848 33.378 134.214 32.628 134.514 31.788C134.814 30.936 135.054 30.03 135.234 29.07C135.414 28.11 135.546 27.144 135.63 26.172H142.578ZM137.88 28.188C137.784 28.908 137.664 29.61 137.52 30.294C137.376 30.966 137.196 31.614 136.98 32.238C136.776 32.862 136.524 33.462 136.224 34.038H139.896V28.188H137.88ZM149.275 25.992C149.983 25.992 150.643 26.088 151.255 26.28C151.879 26.46 152.377 26.742 152.749 27.126C153.133 27.51 153.325 28.002 153.325 28.602C153.325 29.19 153.145 29.658 152.785 30.006C152.437 30.354 151.963 30.606 151.363 30.762V30.852C151.783 30.948 152.161 31.086 152.497 31.266C152.833 31.434 153.097 31.668 153.289 31.968C153.493 32.256 153.595 32.646 153.595 33.138C153.595 33.678 153.421 34.182 153.073 34.65C152.737 35.106 152.209 35.478 151.489 35.766C150.781 36.042 149.869 36.18 148.753 36.18C148.225 36.18 147.727 36.156 147.259 36.108C146.791 36.06 146.365 35.994 145.981 35.91C145.597 35.814 145.261 35.7 144.973 35.568V33.354C145.381 33.546 145.879 33.72 146.467 33.876C147.067 34.032 147.703 34.11 148.375 34.11C148.867 34.11 149.305 34.074 149.689 34.002C150.085 33.93 150.397 33.81 150.625 33.642C150.865 33.474 150.985 33.252 150.985 32.976C150.985 32.712 150.883 32.496 150.679 32.328C150.475 32.148 150.169 32.016 149.761 31.932C149.353 31.848 148.831 31.806 148.195 31.806H147.151V29.952H148.141C149.029 29.952 149.713 29.88 150.193 29.736C150.685 29.592 150.931 29.322 150.931 28.926C150.931 28.614 150.775 28.38 150.463 28.224C150.151 28.056 149.641 27.972 148.933 27.972C148.465 27.972 147.955 28.026 147.403 28.134C146.851 28.242 146.329 28.398 145.837 28.602L145.045 26.73C145.609 26.514 146.227 26.34 146.899 26.208C147.571 26.064 148.363 25.992 149.275 25.992ZM164.389 28.746C164.389 29.274 164.221 29.724 163.885 30.096C163.561 30.468 163.075 30.708 162.427 30.816V30.888C163.111 30.972 163.657 31.206 164.065 31.59C164.485 31.974 164.695 32.466 164.695 33.066C164.695 33.486 164.611 33.876 164.443 34.236C164.287 34.596 164.035 34.908 163.687 35.172C163.339 35.436 162.889 35.64 162.337 35.784C161.797 35.928 161.137 36 160.357 36H155.677V26.172H160.357C161.125 26.172 161.809 26.256 162.409 26.424C163.021 26.58 163.501 26.844 163.849 27.216C164.209 27.588 164.389 28.098 164.389 28.746ZM161.923 32.922C161.923 32.538 161.773 32.262 161.473 32.094C161.173 31.914 160.723 31.824 160.123 31.824H158.359V34.146H160.177C160.681 34.146 161.095 34.056 161.419 33.876C161.755 33.684 161.923 33.366 161.923 32.922ZM161.671 28.962C161.671 28.65 161.551 28.422 161.311 28.278C161.071 28.134 160.717 28.062 160.249 28.062H158.359V30.006H159.943C160.507 30.006 160.933 29.928 161.221 29.772C161.521 29.604 161.671 29.334 161.671 28.962ZM169.68 26.172V36H166.998V26.172H169.68ZM168.348 22.32C168.744 22.32 169.086 22.416 169.374 22.608C169.662 22.788 169.806 23.13 169.806 23.634C169.806 24.126 169.662 24.468 169.374 24.66C169.086 24.852 168.744 24.948 168.348 24.948C167.94 24.948 167.592 24.852 167.304 24.66C167.028 24.468 166.89 24.126 166.89 23.634C166.89 23.13 167.028 22.788 167.304 22.608C167.592 22.416 167.94 22.32 168.348 22.32ZM175.164 26.172V29.952H178.908V26.172H181.59V36H178.908V31.95H175.164V36H172.482V26.172H175.164ZM193.328 31.068C193.328 31.884 193.214 32.61 192.986 33.246C192.77 33.882 192.452 34.422 192.032 34.866C191.624 35.298 191.126 35.628 190.538 35.856C189.95 36.072 189.284 36.18 188.54 36.18C187.856 36.18 187.22 36.072 186.632 35.856C186.056 35.628 185.558 35.298 185.138 34.866C184.718 34.422 184.388 33.882 184.148 33.246C183.92 32.61 183.806 31.884 183.806 31.068C183.806 29.976 183.998 29.058 184.382 28.314C184.766 27.558 185.318 26.982 186.038 26.586C186.758 26.19 187.61 25.992 188.594 25.992C189.518 25.992 190.334 26.19 191.042 26.586C191.75 26.982 192.308 27.558 192.716 28.314C193.124 29.058 193.328 29.976 193.328 31.068ZM186.542 31.068C186.542 31.716 186.608 32.262 186.74 32.706C186.884 33.138 187.106 33.468 187.406 33.696C187.706 33.912 188.096 34.02 188.576 34.02C189.056 34.02 189.44 33.912 189.728 33.696C190.028 33.468 190.244 33.138 190.376 32.706C190.52 32.262 190.592 31.716 190.592 31.068C190.592 30.42 190.52 29.88 190.376 29.448C190.244 29.016 190.028 28.692 189.728 28.476C189.428 28.26 189.038 28.152 188.558 28.152C187.85 28.152 187.334 28.398 187.01 28.89C186.698 29.37 186.542 30.096 186.542 31.068ZM201.989 26.172H204.941L201.053 30.888L205.283 36H202.241L198.227 31.014V36H195.545V26.172H198.227V30.942L201.989 26.172Z" fill="#FAF4EA"/>
</svg>
